HIERARCHY
ROOT Hips
{
  OFFSET -31.5692 30.0904 122.763
  CHANNELS 6 Xposition Yposition Zposition Zrotation Xrotation Yrotation
  JOINT LeftUpLeg
  {
    OFFSET 8.64259 1.95398 -2.38835
    CHANNELS 3 Zrotation Xrotation Yrotation
    JOINT LeftLeg
    {
      OFFSET 43.7702 0 0
      CHANNELS 3 Zrotation Xrotation Yrotation
      JOINT LeftFoot
      {
        OFFSET 40.6238 0 0
        CHANNELS 3 Zrotation Xrotation Yrotation
        JOINT LeftToeBase
        {
          OFFSET 12.7242 0 0
          CHANNELS 3 Zrotation Xrotation Yrotation
          End Site
          {
            OFFSET 0 0 0
          }
        }
      }
    }
  }
  JOINT RightUpLeg
  {
    OFFSET -8.2249 1.95398 -2.59336
    CHANNELS 3 Zrotation Xrotation Yrotation
    JOINT RightLeg
    {
      OFFSET 43.5653 0 0
      CHANNELS 3 Zrotation Xrotation Yrotation
      JOINT RightFoot
      {
        OFFSET 40.6238 0 0
        CHANNELS 3 Zrotation Xrotation Yrotation
        JOINT RightToeBase
        {
          OFFSET 12.7242 0 0
          CHANNELS 3 Zrotation Xrotation Yrotation
          End Site
          {
            OFFSET 0 0 0
          }
        }
      }
    }
  }
  JOINT Spine
  {
    OFFSET 0.165834 0.87714 6.61349
    CHANNELS 3 Zrotation Xrotation Yrotation
    JOINT Spine1
    {
      OFFSET 7.38963 1.71661e-005 0
      CHANNELS 3 Zrotation Xrotation Yrotation
      JOINT Spine2
      {
        OFFSET 11.9445 1.14441e-005 0
        CHANNELS 3 Zrotation Xrotation Yrotation
        JOINT Spine3
        {
          OFFSET 14.7254 4.19617e-005 0
          CHANNELS 3 Zrotation Xrotation Yrotation
          JOINT Spine4
          {
            OFFSET 10.9679 0 0
            CHANNELS 3 Zrotation Xrotation Yrotation
            JOINT RightShoulder
            {
              OFFSET 2.46616 -1.6653 3.69651
              CHANNELS 3 Zrotation Xrotation Yrotation
              JOINT RightArm
              {
                OFFSET 13.0012 0 0
                CHANNELS 3 Zrotation Xrotation Yrotation
                JOINT RightForeArm
                {
                  OFFSET 28.7848 1.62311e-005 0
                  CHANNELS 3 Zrotation Xrotation Yrotation
                  JOINT RightHand
                  {
                    OFFSET 26.5688 1.62095e-005 0
                    CHANNELS 3 Zrotation Xrotation Yrotation
                    End Site
                    {
                      OFFSET 0 0 0
                    }
                  }
                }
              }
            }
            JOINT LeftShoulder
            {
              OFFSET 2.38034 -1.29275 -3.7523
              CHANNELS 3 Zrotation Xrotation Yrotation
              JOINT LeftArm
              {
                OFFSET 16.3182 6.07031e-005 0
                CHANNELS 3 Zrotation Xrotation Yrotation
                JOINT LeftForeArm
                {
                  OFFSET 27.0901 0 0
                  CHANNELS 3 Zrotation Xrotation Yrotation
                  JOINT LeftHand
                  {
                    OFFSET 24.5451 1.51738e-005 0
                    CHANNELS 3 Zrotation Xrotation Yrotation
                    End Site
                    {
                      OFFSET 0 0 0
                    }
                  }
                }
              }
            }
            JOINT Neck
            {
              OFFSET 5.0226 -0.0266342 0
              CHANNELS 3 Zrotation Xrotation Yrotation
              JOINT Head
              {
                OFFSET 6.69364 2.86102e-005 0
                CHANNELS 3 Zrotation Xrotation Yrotation
                End Site
                {
                  OFFSET 0 0 0
                }
              }
            }
          }
        }
      }
    }
  }
}
MOTION
Frames:	7
Frame Time:	0.0416667
-83.5215 92.4217 -13.888 86.8653 -15.3522 80.8368 -175.516 34.7247 76.7926 -47.1654 23.4915 -3.19053 71.7066 7.59239 4.79675 17.4516 -3.07954 -5.35373 168.274 -11.0205 97.0277 -61.6826 -7.40647 4.84001 67.5875 -3.4224 -1.76572 18.0648 2.14404 9.50128 3.54554 8.61309 -88.2565 9.55243 7.85478 2.8573 -2.09703 7.97286 2.50697 -24.7528 6.63266 5.09255 -4.74016 6.63267 5.09255 90.8034 -12.9855 -113.46 -1.13136 -8.61055 0.174309 -39.12 -26.2501 -74.5274 -45.3753 3.76087 -21.865 -86.3547 -47.5703 83.814 -8.51433 21.2102 23.8295 26.2379 30.2705 -39.8634 24.8528 -9.46104 -38.1032 30.8723 -31.1326 -17.8965 -8.05529 -22.9313 -3.68129 
-78.4507 91.4455 -8.63966 86.9468 -16.9409 80.1196 -176.332 32.1695 77.3926 -53.9107 19.3717 -1.15121 80.9131 13.5508 2.94284 15.8409 -7.30161 1.92669 164.157 -2.32762 94.1655 -79.7598 -0.896969 2.35185 70.0318 -5.02773 -3.52541 18.1658 1.75225 10.6907 3.10834 8.65232 -88.1234 9.46844 7.04227 3.19005 -2.18652 7.17574 2.87583 -24.8011 5.75848 5.16223 -4.78848 5.75846 5.16222 89.3792 -17.7327 -114.014 3.19466 -10.6025 7.05681 -39.9088 -27.7366 -74.8317 -45.7146 2.86682 -19.6412 -87.6373 -49.0487 82.1003 -2.70079 21.8413 14.9231 25.949 28.6588 -41.0481 26.6368 -10.821 -40.0421 29.4269 -29.0364 -18.9125 -6.6169 -20.7304 -4.49088 
-73.5823 90.555 -3.56066 87.8814 -18.075 77.6559 -176.639 26.5523 77.2614 -54.3159 17.6416 -0.557768 84.7867 16.3949 2.01058 23.4058 -3.39901 2.08794 162.846 7.87955 92.6341 -95.8662 0.52869 -1.3712 73.9261 -7.86469 -5.34991 16.1853 2.9667 9.2091 2.48945 8.95498 -87.8508 8.85169 5.92226 3.857 -2.81071 6.08612 3.59222 -25.3689 4.49087 5.45797 -5.35622 4.49084 5.45797 88.813 -20.5753 -113.665 10.0756 -12.2886 14.5428 -40.0306 -28.5967 -74.9276 -45.1172 2.52144 -19.0084 -87.8663 -49.4396 81.8251 3.30787 19.8103 0.824025 24.466 26.9724 -42.3354 32.128 -13.1083 -39.8303 32.012 -27.1118 -17.4609 -7.26294 -18.7839 -6.70433 
-68.5122 89.5872 1.69782 88.0756 -19.0501 76.4282 -176.43 20.5614 78.8423 -53.6355 16.3222 -0.297213 90.0091 19.8079 -0.0500793 27.0655 -2.12427 3.68452 166.154 18.6502 89.7999 -108.483 -2.79554 -3.73229 78.2118 -11.5111 -6.66221 13.0632 4.15341 9.29272 1.83561 9.08122 -87.7123 8.60772 4.67546 4.22586 -3.06103 4.85675 4.01605 -25.5774 3.19135 5.43362 -5.56474 3.19135 5.43362 89.3369 -21.1645 -112.157 19.4311 -15.0403 21.602 -34.6596 -27.057 -73.0175 -45.7057 3.11908 -19.7067 -87.5625 -46.4989 81.7414 5.38471 14.3063 -12.0464 24.0468 22.9701 -44.8439 32.9655 -13.297 -39.6817 33.2524 -24.7939 -17.2701 -7.10917 -16.3098 -7.32013 
-63.5502 89.1433 7.46785 87.5193 -21.7533 78.2322 -173.978 13.7416 84.5602 -50.5447 16.0388 -0.243036 95.1493 21.9994 -3.9011 28.9564 -1.74077 5.43905 171.742 29.1008 91.7327 -115.046 -4.14151 -4.49239 79.8664 -13.3758 -7.97278 14.8372 2.85399 11.1251 1.37892 8.97289 -87.9816 8.85435 3.64887 3.74985 -2.81639 3.81024 3.58573 -25.3285 2.35456 4.67171 -5.31583 2.35458 4.6717 91.0288 -19.8342 -108.964 29.514 -18.9508 27.8651 -36.8843 -28.1979 -75.5404 -41.8041 2.95542 -21.1669 -87.5176 -43.2105 81.189 6.16148 6.36123 -20.5151 25.8408 20.8756 -47.8142 31.8097 -14.6995 -44.6887 33.29 -21.1663 -16.0009 -7.41614 -13.2385 -6.59311 
-58.3418 89.0996 13.2662 85.4541 -24.0265 79.4415 -171.485 7.89543 89.7095 -45.0303 18.2788 -0.249342 94.4991 22.6412 -2.7646 33.2899 0.280846 6.36253 177.152 40.9863 92.0175 -116.47 -1.41458 -4.6758 81.3473 -14.2661 -8.14641 15.9674 2.08142 12.2182 0.76042 8.57325 -88.2008 9.68061 2.32901 3.38656 -1.9924 2.47573 3.28089 -24.498 1.20445 3.92916 -4.4853 1.20444 3.92917 92.2063 -19.1545 -106.51 38.6928 -22.6176 34.8964 -40.0526 -30.2242 -78.6078 -41.8387 2.52354 -20.7124 -87.3117 -39.1399 80.6833 8.65219 -0.936007 -26.1315 28.1002 17.6338 -51.2204 34.2135 -15.9865 -45.0705 31.5406 -17.0978 -16.732 -8.03958 -9.25759 -4.86398 
-52.5945 89.7774 19.7195 84.3597 -25.268 81.3612 -169.652 2.03059 94.8746 -38.6026 21.8985 0.665154 88.6049 20.0375 -0.440267 38.227 2.4061 8.4188 -178.979 49.6224 92.0271 -112.197 2.50301 -4.73933 83.831 -15.0302 -7.06645 14.8321 3.34986 9.63249 -0.125637 8.23856 -88.5055 10.3817 0.434188 2.93021 -1.29243 0.562668 2.90828 -23.8012 -0.466167 2.9253 -3.78857 -0.466137 2.9253 93.0312 -17.2567 -105.376 47.0992 -24.3853 42.8948 -40.9224 -30.9943 -80.3673 -43.1083 2.0566 -19.2312 -86.0702 -32.2145 81.3733 9.35104 -7.87872 -27.7164 30.0688 17.2059 -55.8075 34.0761 -16.9383 -47.4225 30.0544 -12.5477 -17.5762 -9.94363 -4.69519 -3.71867 
